<svg width="0" height="0" class="hidden"><symbol fill="none" xmlns="http://www.w3.org/2000/svg" viewBox="0 0 37 14" id="Arrow"><path d="M34.9743 7.00003H1M28.6153 1L36 7.00003L28.6153 13V1Z" stroke-width="1.4" stroke-linecap="round" stroke-linejoin="round"></path></symbol><symbol fill="none" xmlns="http://www.w3.org/2000/svg" viewBox="0 0 24 24" id="Burger"><path d="M2 4H22" stroke="#274C5B" stroke-linecap="round" stroke-linejoin="round"></path><path d="M2 12H22" stroke="#274C5B" stroke-linecap="round" stroke-linejoin="round"></path><path d="M2 20H22" stroke="#274C5B" stroke-linecap="round" stroke-linejoin="round"></path></symbol><symbol fill="none" xmlns="http://www.w3.org/2000/svg" viewBox="0 0 24 24" id="Cross"><path d="M4.92896 4.92893L19.0711 19.0711" stroke="#274C5B" stroke-linecap="round" stroke-linejoin="round"></path><path d="M19.071 4.92896L4.92891 19.0711" stroke="#274C5B" stroke-linecap="round" stroke-linejoin="round"></path></symbol><symbol fill="none" xmlns="http://www.w3.org/2000/svg" viewBox="0 0 24 24" id="FB"><path fill-rule="evenodd" clip-rule="evenodd" d="M24 12.0725C24 5.40566 18.6268 0 12 0C5.37321 0 0 5.40566 0 12.0725C0 18.0979 4.3875 23.0924 10.125 23.9988V15.5632H7.07733V12.0725H10.125V9.41274C10.125 6.38762 11.917 4.71526 14.6577 4.71526C15.9708 4.71526 17.3443 4.95133 17.3443 4.95133V7.92255H15.8304C14.3405 7.92255 13.8745 8.85278 13.8745 9.80887V12.0725H17.2023L16.6709 15.5632H13.875V24C19.6125 23.0939 24 18.0995 24 12.0725Z" fill="#274C5B"></path></symbol><symbol fill="none" xmlns="http://www.w3.org/2000/svg" viewBox="0 0 48 48" id="Food"><path d="M37 19C42.4572 20.1079 46 21.8954 46 23.912C46 27.2743 36.1503 30 24 30C11.8497 30 2 27.2743 2 23.912C2 22.4447 3.8758 21.0986 7 20.0474" stroke="#7EB693" stroke-width="2" stroke-linecap="round"></path><path d="M9.03743 18.1145C8.63797 13.5103 11.5341 11.3103 13.0321 10.7858C16.5273 -0.788523 27.1619 7.7394 30.5087 12.7987C33.8555 17.8581 33.5047 18.1145 37 24.3731C22.0201 30.9151 9.53676 23.8698 9.03743 18.1145Z" stroke="#7EB693" stroke-width="2" stroke-linecap="round"></path><path d="M9.09128 2C8.428 5.24786 11.0811 13.5949 27 21" stroke="#7EB693" stroke-width="2" stroke-linecap="round"></path><path d="M46 23C46 38 36.1503 46 24 46C11.8497 46 2 38 2 23" stroke="#7EB693" stroke-width="2" stroke-linecap="round"></path></symbol><symbol fill="none" xmlns="http://www.w3.org/2000/svg" viewBox="0 0 24 24" id="INST"><path d="M16.9998 1.99983C18.3248 2.00378 19.5944 2.53187 20.5312 3.46877C21.4682 4.40567 21.9963 5.67523 22.0002 7.00019V16.9999C21.9963 18.3249 21.4682 19.5944 20.5312 20.5313C19.5944 21.4682 18.3248 21.9962 16.9998 22.0002H7.00019C5.67523 21.9962 4.40566 21.4682 3.46877 20.5313C2.53187 19.5944 2.00378 18.3249 1.99983 16.9999V7.00019C2.00378 5.67523 2.53187 4.40567 3.46877 3.46877C4.40566 2.53187 5.67523 2.00378 7.00019 1.99983H16.9998ZM16.9998 0H7.00019C3.15 0 0 3.15 0 7.00019V16.9999C0 20.85 3.15 24 7.00019 24H16.9998C20.8501 24 24 20.85 24 16.9999V7.00019C24 3.15 20.8501 0 16.9998 0Z" fill="#274C5B"></path><path d="M18.4993 7.00059C18.2026 7.00059 17.9126 6.91261 17.6659 6.74779C17.4194 6.58297 17.2271 6.3487 17.1136 6.07461C17.0001 5.80051 16.9703 5.49892 17.0282 5.20795C17.0861 4.91697 17.2289 4.64969 17.4387 4.43992C17.6485 4.23015 17.9157 4.08727 18.2067 4.02939C18.4977 3.97153 18.7993 4.00123 19.0734 4.11476C19.3474 4.22828 19.5817 4.42054 19.7466 4.66722C19.9114 4.91389 19.9994 5.20391 19.9994 5.50059C19.9998 5.69768 19.9613 5.89293 19.886 6.07511C19.8108 6.25728 19.7003 6.42281 19.561 6.56219C19.4216 6.70156 19.2561 6.81204 19.0739 6.88726C18.8917 6.9625 18.6965 7.001 18.4993 7.00059ZM11.9995 8.00023C12.7907 8.00023 13.5641 8.23484 14.2219 8.67438C14.8797 9.11393 15.3925 9.73867 15.6952 10.4696C15.998 11.2006 16.0772 12.0049 15.9228 12.7808C15.7685 13.5568 15.3875 14.2695 14.8281 14.829C14.2686 15.3884 13.5559 15.7695 12.7799 15.9238C12.004 16.0781 11.1997 15.9989 10.4687 15.6962C9.73778 15.3933 9.11304 14.8806 8.67349 14.2228C8.23395 13.565 7.99934 12.7916 7.99934 12.0004C8.00047 10.9398 8.42229 9.92305 9.17222 9.17311C9.92216 8.42317 10.939 8.00136 11.9995 8.00023ZM11.9995 6.0004C10.8128 6.0004 9.6528 6.3523 8.6661 7.01159C7.67941 7.67088 6.91037 8.60795 6.45624 9.70432C6.00211 10.8007 5.8833 12.0071 6.1148 13.171C6.34632 14.3349 6.91777 15.4039 7.75688 16.243C8.59599 17.0821 9.66509 17.6537 10.829 17.8852C11.9929 18.1166 13.1993 17.9979 14.2956 17.5437C15.392 17.0896 16.3291 16.3206 16.9884 15.3339C17.6476 14.3472 17.9995 13.1872 17.9995 12.0004C17.9995 10.4091 17.3674 8.88299 16.2422 7.75777C15.1169 6.63255 13.5909 6.0004 11.9995 6.0004Z" fill="#274C5B"></path></symbol><symbol fill="none" xmlns="http://www.w3.org/2000/svg" viewBox="0 0 200 56" id="Logo"><g clip-path="url(#clip0_10_289)"><path d="M70.3945 27.2192V28.4995C70.3945 30.5529 70.1162 32.396 69.5596 34.0288C69.0029 35.6616 68.2174 37.0532 67.2031 38.2036C66.1888 39.3416 64.9766 40.2137 63.5664 40.8198C62.1686 41.4259 60.6162 41.729 58.9092 41.729C57.2145 41.729 55.6621 41.4259 54.252 40.8198C52.8542 40.2137 51.6419 39.3416 50.6152 38.2036C49.5885 37.0532 48.7907 35.6616 48.2217 34.0288C47.665 32.396 47.3867 30.5529 47.3867 28.4995V27.2192C47.3867 25.1535 47.665 23.3104 48.2217 21.6899C48.7783 20.0571 49.5638 18.6655 50.5781 17.5151C51.6048 16.3647 52.8171 15.4865 54.2148 14.8804C55.625 14.2743 57.1774 13.9712 58.8721 13.9712C60.5791 13.9712 62.1315 14.2743 63.5293 14.8804C64.9395 15.4865 66.1517 16.3647 67.166 17.5151C68.1927 18.6655 68.9844 20.0571 69.541 21.6899C70.11 23.3104 70.3945 25.1535 70.3945 27.2192ZM64.7725 28.4995V27.1821C64.7725 25.7472 64.6426 24.4855 64.3828 23.397C64.123 22.3084 63.7396 21.3931 63.2324 20.6509C62.7253 19.9087 62.1068 19.3521 61.377 18.981C60.6471 18.5975 59.8122 18.4058 58.8721 18.4058C57.932 18.4058 57.097 18.5975 56.3672 18.981C55.6497 19.3521 55.0374 19.9087 54.5303 20.6509C54.0355 21.3931 53.6582 22.3084 53.3984 23.397C53.1387 24.4855 53.0088 25.7472 53.0088 27.1821V28.4995C53.0088 29.922 53.1387 31.1838 53.3984 32.2847C53.6582 33.3732 54.0417 34.2948 54.5488 35.0493C55.056 35.7915 55.6745 36.3543 56.4043 36.7378C57.1341 37.1213 57.9691 37.313 58.9092 37.313C59.8493 37.313 60.6842 37.1213 61.4141 36.7378C62.1439 36.3543 62.7562 35.7915 63.251 35.0493C63.7458 34.2948 64.123 33.3732 64.3828 32.2847C64.6426 31.1838 64.7725 29.922 64.7725 28.4995ZM79.4121 25.6606V41.3579H74.0684V21.2817H79.0967L79.4121 25.6606ZM85.4609 21.1519L85.3682 26.106C85.1084 26.0688 84.793 26.0379 84.4219 26.0132C84.0632 25.9761 83.7354 25.9575 83.4385 25.9575C82.6839 25.9575 82.0283 26.0565 81.4717 26.2544C80.9274 26.4399 80.4697 26.7183 80.0986 27.0894C79.7399 27.4604 79.4678 27.9119 79.2822 28.4438C79.109 28.9757 79.0101 29.5819 78.9854 30.2622L77.9092 29.9282C77.9092 28.6294 78.0391 27.4357 78.2988 26.3472C78.5586 25.2463 78.9359 24.2876 79.4307 23.4712C79.9378 22.6548 80.5563 22.0239 81.2861 21.5786C82.016 21.1333 82.8509 20.9106 83.791 20.9106C84.0879 20.9106 84.391 20.9354 84.7002 20.9849C85.0094 21.022 85.263 21.0776 85.4609 21.1519ZM100.323 21.2817H105.166V40.6899C105.166 42.5207 104.758 44.0731 103.941 45.3472C103.137 46.6336 102.012 47.6047 100.564 48.2603C99.1172 48.9282 97.4349 49.2622 95.5176 49.2622C94.6764 49.2622 93.7858 49.1509 92.8457 48.9282C91.918 48.7056 91.0273 48.3592 90.1738 47.8892C89.3327 47.4191 88.6276 46.8254 88.0586 46.1079L90.415 42.9536C91.0335 43.6711 91.751 44.2277 92.5674 44.6235C93.3838 45.0317 94.2868 45.2358 95.2764 45.2358C96.2412 45.2358 97.0576 45.0565 97.7256 44.6978C98.3936 44.3514 98.9069 43.8381 99.2656 43.1577C99.6243 42.4897 99.8037 41.6795 99.8037 40.7271V25.9204L100.323 21.2817ZM86.8154 31.561V31.1714C86.8154 29.6375 87.001 28.2459 87.3721 26.9966C87.7555 25.7349 88.2936 24.6525 88.9863 23.7495C89.6914 22.8465 90.5449 22.1476 91.5469 21.6528C92.5488 21.158 93.6807 20.9106 94.9424 20.9106C96.2783 20.9106 97.3978 21.158 98.3008 21.6528C99.2038 22.1476 99.946 22.8527 100.527 23.7681C101.109 24.6711 101.56 25.741 101.882 26.978C102.216 28.2026 102.476 29.5448 102.661 31.0044V31.8579C102.476 33.2557 102.197 34.5545 101.826 35.7544C101.455 36.9543 100.966 38.0057 100.36 38.9087C99.7542 39.7993 98.9997 40.492 98.0967 40.9868C97.2061 41.4816 96.1423 41.729 94.9053 41.729C93.6683 41.729 92.5488 41.4754 91.5469 40.9683C90.5573 40.4611 89.71 39.7498 89.0049 38.8345C88.2998 37.9191 87.7555 36.8429 87.3721 35.606C87.001 34.369 86.8154 33.0207 86.8154 31.561ZM92.1592 31.1714V31.561C92.1592 32.3898 92.2396 33.1629 92.4004 33.8804C92.5612 34.5978 92.8086 35.2349 93.1426 35.7915C93.4889 36.3358 93.9157 36.7625 94.4229 37.0718C94.9424 37.3687 95.5547 37.5171 96.2598 37.5171C97.237 37.5171 98.0348 37.313 98.6533 36.9048C99.2718 36.4842 99.7357 35.909 100.045 35.1792C100.354 34.4494 100.534 33.6082 100.583 32.6558V30.2251C100.558 29.4458 100.453 28.7469 100.268 28.1284C100.082 27.4976 99.8223 26.9595 99.4883 26.5142C99.1543 26.0688 98.7214 25.7225 98.1895 25.4751C97.6576 25.2277 97.0267 25.104 96.2969 25.104C95.5918 25.104 94.9795 25.2648 94.46 25.5864C93.9528 25.8957 93.526 26.3224 93.1797 26.8667C92.8457 27.411 92.5921 28.0542 92.4189 28.7964C92.2458 29.5262 92.1592 30.3179 92.1592 31.1714ZM120.158 36.8306V27.8872C120.158 27.244 120.053 26.6935 119.843 26.2358C119.632 25.7658 119.305 25.4009 118.859 25.1411C118.426 24.8813 117.864 24.7515 117.171 24.7515C116.577 24.7515 116.064 24.8566 115.631 25.0669C115.198 25.2648 114.864 25.5555 114.629 25.939C114.394 26.3101 114.276 26.7492 114.276 27.2563H108.933C108.933 26.4028 109.131 25.5926 109.526 24.8257C109.922 24.0588 110.497 23.3846 111.252 22.8032C112.007 22.2095 112.903 21.7456 113.942 21.4116C114.994 21.0776 116.169 20.9106 117.468 20.9106C119.026 20.9106 120.412 21.1704 121.624 21.6899C122.836 22.2095 123.789 22.9888 124.481 24.0278C125.187 25.0669 125.539 26.3657 125.539 27.9243V36.5151C125.539 37.616 125.607 38.519 125.743 39.2241C125.879 39.9168 126.077 40.5229 126.337 41.0425V41.3579H120.938C120.678 40.8136 120.48 40.1333 120.344 39.3169C120.22 38.4881 120.158 37.6593 120.158 36.8306ZM120.863 29.1304L120.9 32.1548H117.913C117.208 32.1548 116.596 32.2352 116.076 32.396C115.557 32.5568 115.13 32.7856 114.796 33.0825C114.462 33.367 114.215 33.701 114.054 34.0845C113.905 34.4679 113.831 34.8885 113.831 35.3462C113.831 35.8039 113.936 36.2183 114.146 36.5894C114.357 36.9481 114.66 37.2326 115.056 37.4429C115.451 37.6408 115.915 37.7397 116.447 37.7397C117.251 37.7397 117.95 37.5789 118.544 37.2573C119.138 36.9357 119.595 36.5399 119.917 36.0698C120.251 35.5998 120.424 35.1545 120.437 34.7339L121.847 36.9976C121.649 37.5047 121.377 38.0304 121.03 38.5747C120.696 39.119 120.27 39.6323 119.75 40.1147C119.23 40.5848 118.606 40.9744 117.876 41.2837C117.146 41.5806 116.28 41.729 115.278 41.729C114.004 41.729 112.848 41.4754 111.809 40.9683C110.782 40.4487 109.965 39.7375 109.359 38.8345C108.766 37.9191 108.469 36.88 108.469 35.7173C108.469 34.6659 108.667 33.7319 109.062 32.9155C109.458 32.0991 110.04 31.4126 110.807 30.856C111.586 30.2869 112.557 29.8602 113.72 29.5757C114.882 29.2788 116.231 29.1304 117.765 29.1304H120.863ZM134.891 25.5679V41.3579H129.547V21.2817H134.557L134.891 25.5679ZM134.111 30.6147H132.664C132.664 29.1304 132.856 27.7944 133.239 26.6069C133.623 25.4071 134.161 24.3866 134.854 23.5454C135.546 22.6919 136.369 22.0425 137.321 21.5972C138.286 21.1395 139.362 20.9106 140.55 20.9106C141.49 20.9106 142.35 21.0467 143.129 21.3188C143.908 21.591 144.576 22.0239 145.133 22.6177C145.702 23.2114 146.135 23.9969 146.432 24.9741C146.741 25.9513 146.896 27.145 146.896 28.5552V41.3579H141.515V28.5366C141.515 27.646 141.391 26.9533 141.144 26.4585C140.896 25.9637 140.531 25.6174 140.049 25.4194C139.579 25.2091 138.997 25.104 138.305 25.104C137.587 25.104 136.963 25.2463 136.431 25.5308C135.911 25.8153 135.478 26.2111 135.132 26.7183C134.798 27.2131 134.544 27.7944 134.371 28.4624C134.198 29.1304 134.111 29.8478 134.111 30.6147ZM156.6 21.2817V41.3579H151.237V21.2817H156.6ZM150.903 16.0493C150.903 15.27 151.175 14.6268 151.72 14.1196C152.264 13.6125 152.994 13.3589 153.909 13.3589C154.812 13.3589 155.536 13.6125 156.08 14.1196C156.637 14.6268 156.915 15.27 156.915 16.0493C156.915 16.8286 156.637 17.4718 156.08 17.979C155.536 18.4862 154.812 18.7397 153.909 18.7397C152.994 18.7397 152.264 18.4862 151.72 17.979C151.175 17.4718 150.903 16.8286 150.903 16.0493ZM169.31 37.5542C169.965 37.5542 170.547 37.4305 171.054 37.1831C171.561 36.9233 171.957 36.5646 172.241 36.1069C172.538 35.6369 172.693 35.0864 172.705 34.4556H177.733C177.721 35.8657 177.344 37.1213 176.602 38.2222C175.859 39.3107 174.864 40.1704 173.614 40.8013C172.365 41.4198 170.967 41.729 169.421 41.729C167.862 41.729 166.502 41.4692 165.339 40.9497C164.188 40.4302 163.23 39.7127 162.463 38.7974C161.696 37.8696 161.121 36.7935 160.737 35.5688C160.354 34.3319 160.162 33.0083 160.162 31.5981V31.0601C160.162 29.6375 160.354 28.314 160.737 27.0894C161.121 25.8524 161.696 24.7762 162.463 23.8608C163.23 22.9331 164.188 22.2095 165.339 21.6899C166.489 21.1704 167.838 20.9106 169.384 20.9106C171.029 20.9106 172.47 21.2261 173.707 21.8569C174.956 22.4878 175.934 23.3908 176.639 24.5659C177.356 25.7287 177.721 27.1079 177.733 28.7036H172.705C172.693 28.0356 172.55 27.4295 172.278 26.8853C172.019 26.341 171.635 25.908 171.128 25.5864C170.633 25.2524 170.021 25.0854 169.291 25.0854C168.512 25.0854 167.875 25.2524 167.38 25.5864C166.885 25.908 166.502 26.3534 166.229 26.9224C165.957 27.479 165.766 28.116 165.654 28.8335C165.555 29.5386 165.506 30.2808 165.506 31.0601V31.5981C165.506 32.3774 165.555 33.1258 165.654 33.8433C165.753 34.5607 165.939 35.1978 166.211 35.7544C166.495 36.311 166.885 36.7502 167.38 37.0718C167.875 37.3934 168.518 37.5542 169.31 37.5542ZM186.176 12.8394V41.3579H180.832V12.8394H186.176ZM198.83 21.2817L190.109 31.2271L185.434 35.9585L183.485 32.0991L187.196 27.3862L192.41 21.2817H198.83ZM193.282 41.3579L187.345 32.0806L191.037 28.8521L199.442 41.3579H193.282Z" fill="#274C5B"></path><path d="M1.85071 41.9263H19.291H36.7313" stroke="#7EB693" stroke-width="2" stroke-miterlimit="10"></path><path d="M5.79102 48.3579H19.291H32.791" stroke="#7EB693" stroke-width="2" stroke-miterlimit="10"></path><path d="M18.791 1.35791V8.35791V15.3579" stroke="#7EB693" stroke-width="2" stroke-miterlimit="10"></path><path d="M18.8656 14.6421V41.0737" stroke="#7EB693" stroke-width="2" stroke-miterlimit="10"></path><path d="M29.9253 4.41064L18.8656 15.4949" stroke="#7EB693" stroke-width="2" stroke-miterlimit="10"></path><path d="M34.179 8.67383L18.8656 24.0212" stroke="#7EB693" stroke-width="2" stroke-miterlimit="10"></path><path d="M36.7313 15.4946L18.8656 32.5473" stroke="#7EB693" stroke-width="2" stroke-miterlimit="10"></path><path d="M37.582 23.1685L18.8656 41.9264" stroke="#7EB693" stroke-width="2" stroke-miterlimit="10"></path><path d="M37.582 31.6948L27.373 41.9264" stroke="#7EB693" stroke-width="2" stroke-miterlimit="10"></path><path d="M1 31.6948L11.209 41.9264" stroke="#7EB693" stroke-width="2" stroke-miterlimit="10"></path><path d="M8.65674 4.41064L18.8657 15.4949" stroke="#7EB693" stroke-width="2" stroke-miterlimit="10"></path><path d="M4.40295 8.67383L18.8656 24.0212" stroke="#7EB693" stroke-width="2" stroke-miterlimit="10"></path><path d="M1.85071 14.6421L18.8656 32.5474" stroke="#7EB693" stroke-width="2" stroke-miterlimit="10"></path><path d="M1 22.3159L18.8657 41.0738" stroke="#7EB693" stroke-width="2" stroke-miterlimit="10"></path><path d="M19.291 54.7158C9.19019 54.7158 1 46.2635 1 35.8351V19.8806C1 9.45419 9.19019 1 19.291 1C29.3937 1 37.5821 9.45419 37.5821 19.8806V35.8351C37.5839 46.2635 29.3937 54.7158 19.291 54.7158Z" stroke="#7EB693" stroke-width="2" stroke-miterlimit="10"></path></g><defs><clipPath id="clip0_10_289"><rect width="200" height="56" fill="white"></rect></clipPath></defs></symbol><symbol fill="none" xmlns="http://www.w3.org/2000/svg" viewBox="0 0 24 24" id="PIN"><path d="M12.0027 0C5.37442 0 0 5.37201 0 11.9973C0 16.9088 2.9578 21.1293 7.18553 22.9878C7.15338 22.1522 7.18018 21.1453 7.39451 20.2348C7.62492 19.26 8.93772 13.6951 8.93772 13.6951C8.93772 13.6951 8.5519 12.9292 8.5519 11.7992C8.5519 10.021 9.58072 8.6927 10.8667 8.6927C11.9598 8.6927 12.485 9.51217 12.485 10.4923C12.485 11.5903 11.783 13.2292 11.424 14.7502C11.1239 16.025 12.0616 17.0587 13.3208 17.0587C15.5928 17.0587 17.1253 14.1397 17.1253 10.6798C17.1253 8.05 15.3517 6.08436 12.1313 6.08436C8.49297 6.08436 6.22103 8.79982 6.22103 11.8313C6.22103 12.8757 6.53182 13.6149 7.01407 14.1826C7.23375 14.445 7.2659 14.5521 7.18553 14.852C7.12659 15.0716 6.99799 15.6019 6.93905 15.8161C6.85868 16.1215 6.61219 16.2285 6.33892 16.1161C4.66175 15.4305 3.87943 13.5988 3.87943 11.5314C3.87943 8.12498 6.75686 4.03839 12.4582 4.03839C17.0395 4.03839 20.0563 7.35371 20.0563 10.9101C20.0563 15.6179 17.4361 19.1315 13.578 19.1315C12.2814 19.1315 11.065 18.4298 10.647 17.6371C10.647 17.6371 9.95044 20.4008 9.8004 20.9364C9.54855 21.863 9.05024 22.7843 8.59477 23.5072C9.69961 23.833 10.8454 23.999 11.9973 24C18.6256 24 24 18.6279 24 12.0027C24 5.37737 18.631 0 12.0027 0Z" fill="#274C5B"></path></symbol><symbol fill="none" xmlns="http://www.w3.org/2000/svg" viewBox="0 0 48 48" id="Quality"><path d="M42 30V38H2V20C2 15.5817 5.58172 12 10 12H29.5M34.5 18.5V27.5L39.5 23.5L45 27.5V18.5" stroke="#7EB693" stroke-width="2" stroke-linecap="round" stroke-linejoin="round"></path><path d="M38.7925 2.70816C39.1831 2.31717 39.8168 2.31717 40.2074 2.70816L41.1708 3.67248C41.3799 3.88184 41.6711 3.98781 41.9659 3.96187L43.3237 3.8424C43.8743 3.79396 44.3597 4.2013 44.4076 4.75189L44.5257 6.10985C44.5514 6.40467 44.7063 6.673 44.9488 6.84262L46.0658 7.6239C46.5186 7.94068 46.6287 8.56475 46.3115 9.01732L45.5291 10.1335C45.3592 10.3758 45.3054 10.681 45.3821 10.9668L45.7356 12.2832C45.8789 12.817 45.562 13.3658 45.0281 13.5086L43.7113 13.8607C43.4254 13.9372 43.1881 14.1363 43.0631 14.4046L42.4877 15.6403C42.2544 16.1413 41.6589 16.358 41.1581 16.1242L39.923 15.5475C39.6549 15.4223 39.345 15.4223 39.0769 15.5475L37.8418 16.1242C37.341 16.358 36.7455 16.1413 36.5122 15.6403L35.9368 14.4046C35.8118 14.1363 35.5745 13.9372 35.2886 13.8607L33.9718 13.5086C33.4379 13.3658 33.121 12.817 33.2643 12.2832L33.6178 10.9668C33.6945 10.681 33.6407 10.3758 33.4708 10.1335L32.6884 9.01732C32.3712 8.56475 32.4813 7.94068 32.9341 7.6239L34.0511 6.84262C34.2936 6.673 34.4485 6.40467 34.4742 6.10985L34.5923 4.75189C34.6402 4.2013 35.1256 3.79396 35.6762 3.8424L37.034 3.96187C37.3288 3.98781 37.62 3.88184 37.8291 3.67248L38.7925 2.70816Z" stroke="#7EB693" stroke-width="2" stroke-linecap="round"></path><path d="M2 20.5C2 15.8056 5.80558 12 10.5 12V12C15.1944 12 19 15.8056 19 20.5V38H2V20.5Z" stroke="#7EB693" stroke-width="2" stroke-linecap="round"></path><path d="M14.5 23H6.5" stroke="#7EB693" stroke-width="2" stroke-linecap="round"></path><path d="M23 39V46" stroke="#7EB693" stroke-width="2" stroke-linecap="round"></path><path d="M28 39V46" stroke="#7EB693" stroke-width="2" stroke-linecap="round"></path></symbol><symbol fill="none" xmlns="http://www.w3.org/2000/svg" viewBox="0 0 24 24" id="Star"><path d="M10.9794 0.791818C11.3115 -0.263939 12.6893 -0.263939 13.0203 0.791818L15.1432 7.54721C15.2909 8.02067 15.7017 8.33903 16.1631 8.33903H22.9199C23.9764 8.33903 24.4023 9.81484 23.5344 10.4673L18.1555 14.5094C17.7599 14.8066 17.5949 15.3519 17.7491 15.8458L19.8245 22.4501C20.1587 23.5169 19.0439 24.4287 18.189 23.7864L12.615 19.5972C12.2452 19.3195 11.7557 19.3195 11.3859 19.5972L5.81079 23.7864C4.9569 24.4287 3.84103 23.5169 4.17633 22.4501L6.25067 15.8458C6.40593 15.3519 6.23989 14.8066 5.84421 14.5094L0.465786 10.4673C-0.402443 9.81484 0.0236396 8.33903 1.08022 8.33903H7.83662C8.29807 8.33903 8.70884 8.02067 8.85762 7.54721L10.9794 0.791818Z" fill="#FFA858"></path></symbol><symbol fill="none" xmlns="http://www.w3.org/2000/svg" viewBox="0 0 24 24" id="TW"><path d="M24 4.3698C23.0997 4.77727 22.1472 5.04573 21.1724 5.16667C22.1968 4.54187 22.9672 3.54926 23.339 2.37501C22.3705 2.9649 21.3127 3.3788 20.2109 3.59897C19.7471 3.09247 19.189 2.68954 18.5709 2.41467C17.9529 2.13979 17.2875 1.99871 16.6155 2.00001C13.8944 2.00001 11.6925 4.26042 11.6925 7.04688C11.6905 7.43446 11.7332 7.8209 11.8195 8.19793C9.86833 8.10264 7.95775 7.58416 6.20998 6.67566C4.46221 5.76715 2.91574 4.48863 1.66949 2.92188C1.23228 3.68965 1.00106 4.56566 0.999998 5.45834C0.999998 7.20834 1.8765 8.75522 3.2 9.66146C2.41586 9.64208 1.64779 9.42589 0.960999 9.03125V9.09375C0.960999 11.5417 2.661 13.5781 4.911 14.0417C4.48789 14.1591 4.05188 14.2187 3.614 14.2188C3.30329 14.2193 2.99328 14.1879 2.6885 14.125C3.314 16.1302 5.1345 17.5886 7.29099 17.6302C5.53868 19.0369 3.3873 19.7973 1.175 19.7917C0.782308 19.7911 0.389982 19.7667 0 19.7187C2.25059 21.2157 4.86671 22.0076 7.53698 21.9999C16.605 21.9999 21.559 14.3072 21.559 7.63542C21.559 7.41668 21.5534 7.19792 21.5434 6.98438C22.5051 6.27191 23.3368 5.38653 24 4.3698Z" fill="#274C5B"></path></symbol><symbol fill="none" xmlns="http://www.w3.org/2000/svg" viewBox="0 0 24 24" id="User"><path d="M15.6846 3.45446C14.749 2.51651 13.4422 2 12 2C10.55 2 9.23902 2.51339 8.30779 3.44553C7.36648 4.38793 6.90783 5.66873 7.01552 7.05176C7.22898 9.7803 9.46498 11.9999 12 11.9999C14.535 11.9999 16.7672 9.78075 16.984 7.05265C17.0931 5.68212 16.6316 4.404 15.6846 3.45446ZM20.4613 21.9999H3.53869C3.31719 22.0026 3.09783 21.9594 2.89658 21.8734C2.69532 21.7874 2.51723 21.6609 2.37526 21.503C2.06277 21.1561 1.93682 20.6825 2.03008 20.2035C2.43584 18.1133 3.70216 16.3575 5.69248 15.1249C7.4607 14.0307 9.70054 13.4285 12 13.4285C14.2994 13.4285 16.5393 14.0312 18.3076 15.1249C20.2979 16.3571 21.5641 18.1129 21.9699 20.203C22.0632 20.682 21.9372 21.1557 21.6248 21.5026C21.4828 21.6606 21.3048 21.7872 21.1034 21.8732C20.9022 21.9592 20.6829 22.0025 20.4613 21.9999Z" fill="#7EB693"></path></symbol></svg>